<svg width="14" height="13" viewBox="0 0 14 13" fill="none" xmlns="http://www.w3.org/2000/svg">
<path d="M13.8593 3.0264L12.1968 1.71169C12.0838 1.63726 11.961 1.57992 11.8321 1.54143C11.7037 1.49878 11.5701 1.47508 11.4352 1.47102H6.65L7.2107 5.06313H11.4352C11.55 5.06313 11.6935 5.03654 11.8314 4.99272C11.9693 4.9489 12.1023 4.88855 12.1961 4.82317L13.8586 3.50703C13.9531 3.44165 14 3.35472 14 3.26707C14 3.17943 13.9531 3.0925 13.8593 3.0264ZM5.95 0.0341797H5.25C5.15717 0.0341797 5.06815 0.072025 5.00251 0.13939C4.93687 0.206755 4.9 0.298122 4.9 0.39339V2.90786H2.5648C2.4486 2.90786 2.3058 2.93445 2.1679 2.97899C2.0293 3.02209 1.897 3.08172 1.8032 3.14853L0.1407 4.46324C0.0462 4.52862 0 4.61627 0 4.70392C0 4.79084 0.0462 4.87777 0.1407 4.94459L1.8032 6.26073C1.897 6.32611 2.0293 6.38646 2.1679 6.42956C2.3058 6.47339 2.4486 6.49997 2.5648 6.49997H4.9V12.6065C4.9 12.7018 4.93687 12.7932 5.00251 12.8605C5.06815 12.9279 5.15717 12.9658 5.25 12.9658H5.95C6.04283 12.9658 6.13185 12.9279 6.19749 12.8605C6.26313 12.7932 6.3 12.7018 6.3 12.6065V0.39339C6.3 0.298122 6.26313 0.206755 6.19749 0.13939C6.13185 0.072025 6.04283 0.0341797 5.95 0.0341797Z" fill="#242732"/>
</svg>
