<svg width="13" height="9" viewBox="0 0 13 9" fill="none" xmlns="http://www.w3.org/2000/svg">
<path d="M0.446799 1.07349L5.83496 4.00227C6.016 4.1004 6.2502 4.14693 6.48585 4.14693C6.72149 4.14693 6.95569 4.1004 7.13673 4.00227L12.5249 1.07349C12.8762 0.882314 13.2081 0.138672 12.5637 0.138672H0.408722C-0.235701 0.138672 0.0962092 0.882314 0.446799 1.07349ZM12.688 2.67491L7.13673 5.60223C6.89247 5.73162 6.72149 5.74688 6.48585 5.74688C6.2502 5.74688 6.07922 5.73162 5.83496 5.60223C5.59069 5.47283 0.710459 2.88426 0.311736 2.67418C0.0315513 2.52589 0.034425 2.69962 0.034425 2.83338V8.13483C0.034425 8.44013 0.441051 8.86175 0.752846 8.86175H12.2476C12.5594 8.86175 12.966 8.44013 12.966 8.13483V2.8341C12.966 2.70035 12.9689 2.52661 12.688 2.67491Z" fill="#242732"/>
</svg>
