<svg width="13" height="13" viewBox="0 0 13 13" fill="none" xmlns="http://www.w3.org/2000/svg">
<path d="M11.5916 6.14776H12.9457C12.9457 2.67432 10.3234 0.0546875 6.84521 0.0546875V1.40885C9.59553 1.40885 11.5916 3.40151 11.5916 6.14776Z" fill="#242732"/>
<path d="M6.85208 4.11639C8.27598 4.11639 8.88333 4.72374 8.88333 6.14764H10.2375C10.2375 3.96405 9.03567 2.76223 6.85208 2.76223V4.11639ZM9.16906 7.80176C9.03895 7.68351 8.86799 7.62044 8.69226 7.62587C8.51653 7.6313 8.34979 7.70481 8.22723 7.83087L6.60697 9.49717C6.21697 9.42269 5.43291 9.17827 4.62583 8.37322C3.81875 7.56545 3.57432 6.77936 3.50187 6.39207L5.16682 4.77113C5.29304 4.64867 5.36665 4.4819 5.37208 4.30612C5.37752 4.13034 5.31434 3.95934 5.19593 3.82931L2.69411 1.07832C2.57565 0.947885 2.41101 0.868766 2.23515 0.857767C2.05929 0.846768 1.88608 0.904755 1.75229 1.01941L0.283017 2.27947C0.165956 2.39695 0.096087 2.55331 0.0866623 2.71889C0.076506 2.88816 -0.11714 6.89785 2.99203 10.0084C5.70442 12.7201 9.10203 12.9185 10.0378 12.9185C10.1745 12.9185 10.2585 12.9144 10.2808 12.9131C10.4464 12.9038 10.6027 12.8336 10.7196 12.716L11.979 11.2461C12.0937 11.1124 12.1518 10.9392 12.1409 10.7634C12.1301 10.5875 12.0511 10.4228 11.9207 10.3043L9.16906 7.80176Z" fill="#242732"/>
</svg>
