<svg width="12" height="12" viewBox="0 0 12 12" fill="none" xmlns="http://www.w3.org/2000/svg">
<path d="M8.54317 7.16602C8.58984 6.78102 8.62484 6.39602 8.62484 5.99935C8.62484 5.60268 8.58984 5.21768 8.54317 4.83268H10.5148C10.6082 5.20602 10.6665 5.59685 10.6665 5.99935C10.6665 6.40185 10.6082 6.79268 10.5148 7.16602H8.54317ZM7.51067 10.4093C7.86067 9.76185 8.129 9.06185 8.31567 8.33268H10.0365C9.47135 9.30584 8.57474 10.043 7.51067 10.4093ZM7.36484 7.16602H4.63484C4.5765 6.78102 4.5415 6.39602 4.5415 5.99935C4.5415 5.60268 4.5765 5.21185 4.63484 4.83268H7.36484C7.41734 5.21185 7.45817 5.60268 7.45817 5.99935C7.45817 6.39602 7.41734 6.78102 7.36484 7.16602ZM5.99984 10.6427C5.51567 9.94268 5.12484 9.16685 4.88567 8.33268H7.114C6.87484 9.16685 6.484 9.94268 5.99984 10.6427ZM3.6665 3.66602H1.96317C2.5225 2.69022 3.41847 1.95188 4.48317 1.58935C4.13317 2.23685 3.87067 2.93685 3.6665 3.66602ZM1.96317 8.33268H3.6665C3.87067 9.06185 4.13317 9.76185 4.48317 10.4093C3.4207 10.0428 2.526 9.30552 1.96317 8.33268ZM1.48484 7.16602C1.3915 6.79268 1.33317 6.40185 1.33317 5.99935C1.33317 5.59685 1.3915 5.20602 1.48484 4.83268H3.4565C3.40984 5.21768 3.37484 5.60268 3.37484 5.99935C3.37484 6.39602 3.40984 6.78102 3.4565 7.16602H1.48484ZM5.99984 1.35018C6.484 2.05018 6.87484 2.83185 7.114 3.66602H4.88567C5.12484 2.83185 5.51567 2.05018 5.99984 1.35018ZM10.0365 3.66602H8.31567C8.1331 2.94353 7.86276 2.24612 7.51067 1.58935C8.584 1.95685 9.4765 2.69768 10.0365 3.66602ZM5.99984 0.166016C2.774 0.166016 0.166504 2.79102 0.166504 5.99935C0.166504 7.54644 0.781085 9.03018 1.87505 10.1241C2.41672 10.6658 3.05978 11.0955 3.76752 11.3886C4.47525 11.6818 5.23379 11.8327 5.99984 11.8327C7.54693 11.8327 9.03067 11.2181 10.1246 10.1241C11.2186 9.03018 11.8332 7.54644 11.8332 5.99935C11.8332 5.2333 11.6823 4.47476 11.3891 3.76703C11.096 3.0593 10.6663 2.41623 10.1246 1.87456C9.58295 1.33288 8.93989 0.903204 8.23216 0.610052C7.52443 0.316899 6.76588 0.166016 5.99984 0.166016Z" fill="#242732"/>
</svg>
